# xmcd
#
# Track frame offsets: 
#        150
#        94125
#        115050
#        138253
#        194325
#        215625
#
# Disc length: 3167 seconds
#
# Revision: 1
# Processed by: cddbd v1.5.2PL0 Copyright (c) Steve Scherf et al.
# Submitted via: ExactAudioCopy v0.99pb5
#
DISCID=530c5d06
DTITLE=Evan Parker, Derek Bailey, Han Bennink - The Topography of the 
DTITLE=Lungs
DYEAR=1970
DGENRE=Jazz
TTITLE0=Titan Moon
TTITLE1=For Peter B and Peter K
TTITLE2=Fixed Elsewhere
TTITLE3=Dogmeat
TTITLE4=Found Elsewhere 1
TTITLE5=Found Elsewhere 2
EXTD=YEAR: 1970
EXTT0=
EXTT1=
EXTT2=
EXTT3=
EXTT4=
EXTT5=
PLAYORDER=
